<mxfile host="app.diagrams.net" modified="2023-11-13T05:48:01.235Z" agent="Mozilla/5.0 (Macintosh; Intel Mac OS X 10_15_7) AppleWebKit/537.36 (KHTML, like Gecko) Chrome/118.0.0.0 Safari/537.36" etag="rNDJIDclvZ4LWW0xmUCc" version="22.1.0" type="github">
  <diagram name="Page-1" id="5bWwQys-URIxSxSmuOOc">
    <mxGraphModel dx="954" dy="299" grid="1" gridSize="10" guides="1" tooltips="1" connect="1" arrows="1" fold="1" page="1" pageScale="1" pageWidth="850" pageHeight="1100" math="0" shadow="0">
      <root>
        <mxCell id="0" />
        <mxCell id="1" parent="0" />
        <UserObject label="" tags="" name="getdata" id="Y3A4lMRvVH8JnWvST8Fs-1">
          <mxCell style="rounded=1;whiteSpace=wrap;html=1;fillColor=orange;strokeColor=#b85450;comic=0;absoluteArcSize=0;glass=0;" parent="1" vertex="1">
            <mxGeometry x="120" y="60" width="120" height="60" as="geometry" />
          </mxCell>
        </UserObject>
        <UserObject label="2" tags="" name="getdata" id="Y3A4lMRvVH8JnWvST8Fs-2">
          <mxCell style="rounded=1;whiteSpace=wrap;html=1;fillColor=pink;strokeColor=#b85450;comic=0;absoluteArcSize=0;glass=0" parent="1" vertex="1">
            <mxGeometry x="330" y="60" width="120" height="120" as="geometry" />
          </mxCell>
        </UserObject>
      </root>
    </mxGraphModel>
  </diagram>
</mxfile>
